<svg width="16" height="16" viewBox="0 0 16 16" fill="none" xmlns="http://www.w3.org/2000/svg">
<path fill-rule="evenodd" clip-rule="evenodd" d="M6.33556 2.84291C5.95971 3.31254 5.75 3.97204 5.75 4.66671V5.58337H10.25V4.66671C10.25 3.97204 10.0403 3.31254 9.66444 2.84291C9.30385 2.39235 8.76757 2.08337 8 2.08337C7.23243 2.08337 6.69615 2.39235 6.33556 2.84291ZM4.25 4.66671V5.58337H3.72222C2.49054 5.58337 1.75 6.75602 1.75 7.84853V13.1516C1.75 14.2441 2.49054 15.4167 3.72222 15.4167H12.2778C13.5095 15.4167 14.25 14.2441 14.25 13.1516V7.84853C14.25 6.75602 13.5095 5.58337 12.2778 5.58337H11.75V4.66671C11.75 3.69267 11.4597 2.6855 10.8356 1.90564C10.1962 1.10671 9.23243 0.583374 8 0.583374C6.76757 0.583374 5.80385 1.10671 5.16444 1.90564C4.54029 2.6855 4.25 3.69267 4.25 4.66671ZM3.72222 7.08337H5H11H12.2778C12.3492 7.08337 12.4528 7.11728 12.5583 7.24804C12.6649 7.38026 12.75 7.59007 12.75 7.84853V13.1516C12.75 13.41 12.6649 13.6198 12.5583 13.752C12.4528 13.8828 12.3492 13.9167 12.2778 13.9167H3.72222C3.65083 13.9167 3.54721 13.8828 3.44173 13.752C3.33508 13.6198 3.25 13.41 3.25 13.1516V7.84853C3.25 7.59007 3.33508 7.38026 3.44173 7.24804C3.54721 7.11728 3.65083 7.08337 3.72222 7.08337ZM8.75 10C8.75 9.58582 8.41421 9.25003 8 9.25003C7.58579 9.25003 7.25 9.58582 7.25 10V11.5C7.25 11.9142 7.58579 12.25 8 12.25C8.41421 12.25 8.75 11.9142 8.75 11.5V10Z" fill="#163951"/>
</svg>
